<svg xmlns="http://www.w3.org/2000/svg" version="1.1" xmlns:xlink="http://www.w3.org/1999/xlink" xmlns:svgjs="http://svgjs.dev/svgjs" width="1000" height="999" viewBox="0 0 1000 999"><g transform="matrix(1,0,0,1,-0.215743440233382,-0.21552769679306039)"><svg viewBox="0 0 343 343" data-background-color="#ffffff" preserveAspectRatio="xMidYMid meet" height="999" width="1000" xmlns="http://www.w3.org/2000/svg" xmlns:xlink="http://www.w3.org/1999/xlink"><g id="tight-bounds" transform="matrix(1,0,0,1,0.0740000000000407,0.07400000000001228)"><svg viewBox="0 0 342.85155851775386 342.85155851775386" height="342.85155851775386" width="342.85155851775386"><g><svg></svg></g><g><svg viewBox="0 0 342.85155851775386 342.85155851775386" height="342.85155851775386" width="342.85155851775386"><g><path d="M0 171.426c0-94.676 76.75-171.426 171.426-171.426 94.676 0 171.426 76.75 171.426 171.426 0 94.676-76.75 171.426-171.426 171.426-94.676 0-171.426-76.75-171.426-171.426zM171.426 340.436c93.342 0 169.01-75.669 169.01-169.01 0-93.342-75.669-169.01-169.01-169.011-93.342 0-169.01 75.669-169.011 169.011 0 93.342 75.669 169.01 169.011 169.01z" data-fill-palette-color="tertiary" fill="#a437db" stroke="transparent"></path><ellipse rx="164.56874808852186" ry="164.56874808852186" cx="171.42577925887693" cy="171.42577925887693" fill="#a437db" stroke="transparent" stroke-width="0" fill-opacity="1" data-fill-palette-color="tertiary"></ellipse></g><g transform="matrix(1,0,0,1,64.84655864529837,136.3658860506148)"><svg viewBox="0 0 213.1584412271571 70.11978641652426" height="70.11978641652426" width="213.1584412271571"><g><svg viewBox="0 0 213.1584412271571 70.11978641652426" height="70.11978641652426" width="213.1584412271571"><g><svg viewBox="0 0 213.1584412271571 70.11978641652426" height="70.11978641652426" width="213.1584412271571"><g transform="matrix(1,0,0,1,0,43.33684107172745)"><svg viewBox="0 0 213.1584412271571 26.78294534479681" height="26.78294534479681" width="213.1584412271571"><g id="textblocktransform"><svg viewBox="0 0 213.1584412271571 26.78294534479681" height="26.78294534479681" width="213.1584412271571" id="textblock"><g><svg viewBox="0 0 213.1584412271571 26.78294534479681" height="26.78294534479681" width="213.1584412271571"><g transform="matrix(1,0,0,1,0,0)"><svg width="213.1584412271571" viewBox="2 -40.35 327.87 41.2" height="26.78294534479681" data-palette-color="#ffffff"><path d="M16.25-23.15L34.65-23.15 34.65-2.65Q31.65-0.95 28.15-0.05 24.65 0.85 21.6 0.85L21.6 0.85Q15.25 0.85 10.85-1.63 6.45-4.1 4.23-8.55 2-13 2-18.9L2-18.9Q2-24.5 4.13-28.95 6.25-33.4 10.65-36 15.05-38.6 21.6-38.6L21.6-38.6Q24.9-38.6 27.18-37.98 29.45-37.35 32.3-36.1L32.3-36.1 32.3-29Q29.75-30.4 27.28-31.13 24.8-31.85 21.6-31.85L21.6-31.85Q18.05-31.85 15.45-30.2 12.85-28.55 11.48-25.65 10.1-22.75 10.1-19.05L10.1-19.05Q10.1-13.1 13.13-9.5 16.15-5.9 21.6-5.9L21.6-5.9Q24.25-5.9 26.85-6.9L26.85-6.9 26.85-16.3 16.25-16.3 16.25-23.15ZM41.7-32.8L41.7-40.35 49.4-40.35 49.4-32.8 41.7-32.8ZM41.7 0L41.7-28.15 49.4-28.15 49.4 0 41.7 0ZM72.65-20.45L66.25-20.45 66.25-9.35Q66.25-7.6 66.82-6.9 67.4-6.2 68.9-6.2L68.9-6.2Q70.5-6.2 71.95-6.6L71.95-6.6 71.95 0Q69.05 0.65 66.9 0.65L66.9 0.65Q62.6 0.65 60.57-1.2 58.55-3.05 58.55-6.7L58.55-6.7 58.55-20.45 54.75-20.45 54.75-27.3 58.55-27.3 58.55-36.8 66.25-36.8 66.25-27.3 72.65-27.3 72.65-20.45ZM102.79-37.9Q112.89-37.9 118.07-33.08 123.24-28.25 123.24-18.9L123.24-18.9Q123.24-9.5 118.09-4.75 112.94 0 102.79 0L102.79 0 89.64 0 89.64-37.9 102.79-37.9ZM115.14-19.05Q115.14-25.3 112.09-28.23 109.04-31.15 102.79-31.15L102.79-31.15 97.59-31.15 97.59-6.75 102.79-6.75Q109.14-6.75 112.14-9.68 115.14-12.6 115.14-19.05L115.14-19.05ZM135.49-11.95Q136.39-5.6 143.39-5.6L143.39-5.6Q145.29-5.6 147.11-6.1 148.94-6.6 151.24-7.7L151.24-7.7 153.29-1.7Q150.74-0.3 148.21 0.28 145.69 0.85 142.39 0.85L142.39 0.85Q137.59 0.85 134.19-1.03 130.79-2.9 129.04-6.28 127.29-9.65 127.29-14.1L127.29-14.1Q127.29-18.8 129.09-22.15 130.89-25.5 133.99-27.23 137.09-28.95 140.89-28.95L140.89-28.95Q146.94-28.95 150.36-25.4 153.79-21.85 153.79-15L153.79-15 153.79-11.95 135.49-11.95ZM140.89-22.5Q138.79-22.5 137.46-21.4 136.14-20.3 135.64-17.8L135.64-17.8 145.74-17.8Q145.49-20.25 144.29-21.38 143.09-22.5 140.89-22.5L140.89-22.5ZM174.99-20.45L168.59-20.45 168.59-9.35Q168.59-7.6 169.16-6.9 169.74-6.2 171.24-6.2L171.24-6.2Q172.84-6.2 174.29-6.6L174.29-6.6 174.29 0Q171.39 0.65 169.24 0.65L169.24 0.65Q164.94 0.65 162.91-1.2 160.89-3.05 160.89-6.7L160.89-6.7 160.89-20.45 157.09-20.45 157.09-27.3 160.89-27.3 160.89-36.8 168.59-36.8 168.59-27.3 174.99-27.3 174.99-20.45ZM186.83-11.95Q187.73-5.6 194.73-5.6L194.73-5.6Q196.63-5.6 198.46-6.1 200.28-6.6 202.58-7.7L202.58-7.7 204.63-1.7Q202.08-0.3 199.56 0.28 197.03 0.85 193.73 0.85L193.73 0.85Q188.93 0.85 185.53-1.03 182.13-2.9 180.38-6.28 178.63-9.65 178.63-14.1L178.63-14.1Q178.63-18.8 180.43-22.15 182.23-25.5 185.33-27.23 188.43-28.95 192.23-28.95L192.23-28.95Q198.28-28.95 201.71-25.4 205.13-21.85 205.13-15L205.13-15 205.13-11.95 186.83-11.95ZM192.23-22.5Q190.13-22.5 188.81-21.4 187.48-20.3 186.98-17.8L186.98-17.8 197.08-17.8Q196.83-20.25 195.63-21.38 194.43-22.5 192.23-22.5L192.23-22.5ZM222.98 0.85Q216.13 0.8 212.48-3.13 208.83-7.05 208.83-14.1L208.83-14.1Q208.83-21.1 212.48-25 216.13-28.9 222.98-28.95L222.98-28.95Q225.43-28.95 227.21-28.63 228.98-28.3 230.93-27.55L230.93-27.55 230.93-20.5Q229.08-21.35 227.43-21.7 225.78-22.05 223.83-22.05L223.83-22.05Q220.18-22 218.53-19.98 216.88-17.95 216.88-14.15L216.88-14.15Q216.88-6.05 223.63-6L223.63-6Q227.08-6 230.78-8.25L230.78-8.25 232.98-1.8Q228.43 0.85 222.98 0.85L222.98 0.85ZM253.63-20.45L247.23-20.45 247.23-9.35Q247.23-7.6 247.8-6.9 248.38-6.2 249.88-6.2L249.88-6.2Q251.48-6.2 252.93-6.6L252.93-6.6 252.93 0Q250.03 0.65 247.88 0.65L247.88 0.65Q243.58 0.65 241.55-1.2 239.53-3.05 239.53-6.7L239.53-6.7 239.53-20.45 235.73-20.45 235.73-27.3 239.53-27.3 239.53-36.8 247.23-36.8 247.23-27.3 253.63-27.3 253.63-20.45ZM259.03-32.8L259.03-40.35 266.73-40.35 266.73-32.8 259.03-32.8ZM259.03 0L259.03-28.15 266.73-28.15 266.73 0 259.03 0ZM292.47-28.15L300.37-28.15 290.92 0.45 281.02 0.45 271.47-28.15 279.37-28.15 285.97-6.7 292.47-28.15ZM311.57-11.95Q312.47-5.6 319.47-5.6L319.47-5.6Q321.37-5.6 323.2-6.1 325.02-6.6 327.32-7.7L327.32-7.7 329.37-1.7Q326.82-0.3 324.3 0.28 321.77 0.85 318.47 0.85L318.47 0.85Q313.67 0.85 310.27-1.03 306.87-2.9 305.12-6.28 303.37-9.65 303.37-14.1L303.37-14.1Q303.37-18.8 305.17-22.15 306.97-25.5 310.07-27.23 313.17-28.95 316.97-28.95L316.97-28.95Q323.02-28.95 326.45-25.4 329.87-21.85 329.87-15L329.87-15 329.87-11.95 311.57-11.95ZM316.97-22.5Q314.87-22.5 313.55-21.4 312.22-20.3 311.72-17.8L311.72-17.8 321.82-17.8Q321.57-20.25 320.37-21.38 319.17-22.5 316.97-22.5L316.97-22.5Z" opacity="1" transform="matrix(1,0,0,1,0,0)" fill="#ffffff" class="undefined-text-0" data-fill-palette-color="quaternary" id="text-0"></path></svg></g></svg></g></svg></g></svg></g><g transform="matrix(1,0,0,1,87.2908042011621,0)"><svg viewBox="0 0 38.57683282483291 37.0140304665092" height="37.0140304665092" width="38.57683282483291"><g><svg xmlns="http://www.w3.org/2000/svg" xmlns:xlink="http://www.w3.org/1999/xlink" version="1.1" x="0" y="0" viewBox="6.285806133878022 9.9 89.21419386612197 85.6" enable-background="new 0 0 100 100" xml:space="preserve" height="37.0140304665092" width="38.57683282483291" class="icon-icon-0" data-fill-palette-color="quaternary" id="icon-0"><path d="M56.3 31.3c10.3 0 19.1 6.2 23 15.1 0.6-0.5 1.1-1 1.6-1.5 5.4-5.4 9.5-11.3 11.5-16.7 2.3-6.1 1.8-11-1.4-14.2-2.7-2.7-7.4-4.1-13.4-4.1-9.2 0-22.9 3.8-33.4 14.3-4.4 4.4-5.6 5.6-9.1 11.7l-0.5 0.8 3 3C42.1 34.5 48.8 31.3 56.3 31.3z" fill="#ffffff" data-fill-palette-color="quaternary"></path><path d="M23.5 54.1l-0.9 0.8c-1 0.9-2.1 1.8-3.4 2.8-1.6 1.2-3.7 2.8-6.2 5-9.7 8.5-7.2 18.8-3 23.6 2.1 2.4 5.4 3.8 8.8 3.8 0 0 0 0 0 0 3.4 0 6.6-1.3 9-3.8l11-12.2c-3.1-3.1-5.4-6.9-6.6-11.3L23.5 54.1z" fill="#ffffff" data-fill-palette-color="quaternary"></path><path d="M56.3 41.3c-6.1 0-11.4 3.7-13.8 9L57.3 64l0.8-0.5c1.8-1 3.7-2 5.7-3.1 2.5-1.3 5-2.6 7.4-4 0-0.1 0-0.1 0-0.2C71.3 48 64.5 41.3 56.3 41.3z" fill="#ffffff" data-fill-palette-color="quaternary"></path><path d="M95.5 92L73.8 70.3c3.1-3.8 4.9-8.7 4.9-14 0-12.4-10.1-22.5-22.5-22.5S33.8 43.8 33.8 56.3c0 12.4 10.1 22.5 22.5 22.5 5.3 0 10.2-1.8 14-4.9L92 95.5 95.5 92zM38.8 56.3c0-9.7 7.8-17.5 17.5-17.5s17.5 7.8 17.5 17.5-7.8 17.5-17.5 17.5S38.8 65.9 38.8 56.3z" fill="#ffffff" data-fill-palette-color="quaternary"></path></svg></g></svg></g><g></g></svg></g></svg></g></svg></g></svg></g><defs></defs></svg><rect width="342.85155851775386" height="342.85155851775386" fill="none" stroke="none" visibility="hidden"></rect></g></svg></g></svg>